<?xml version="1.0" encoding="UTF-8"?>
<svg width="400" height="400" viewBox="-0.9 -0.9 1.8 1.8" id="sr-visualizer" xmlns="http://www.w3.org/2000/svg"><defs><marker id="arrowhead" markerWidth="4" markerHeight="3.5" refX="3" refY="1.75" orient="auto"><polygon points="0 0, 4 1.75, 0 3.5" fill="#808080"></polygon></marker></defs><polygon points="-1.5184428956292356e-16, -0.2198873666592313 -0.21026020397250061, -0.11189369283530938 -0.20186864581378233, 0.1292501272388593 -1.4602750058627123e-16, 0.015709346980129463" fill="#F08A24" stroke="#000000" stroke-width="0.02" stroke-linejoin="round"></polygon><polygon points="0.21026020397250045, -0.11189369283530946 -1.138832171721927e-16, -0.2198873666592313 -1.0952062543970343e-16, 0.01570934698012939 0.2018686458137822, 0.12925012723885923" fill="#9B1FC1" stroke="#000000" stroke-width="0.02" stroke-linejoin="round"></polygon><polygon points="-0.20186864581378225, 0.12925012723885917 1.9847551445258428e-17, 0.2527066799168161 0.20186864581378225, 0.12925012723885917 0, 0.015709346980129334" fill="#1F9E57" stroke="#000000" stroke-width="0.02" stroke-linejoin="round"></polygon><polygon points="0.21937968551671744, -0.37395546671262364 -1.1860778232608262e-16, -0.47503203567376384 -1.138832171721927e-16, -0.2198873666592313 0.21026020397250045, -0.11189369283530946" fill="#FDFDFD" stroke="#000000" stroke-width="0.02" stroke-linejoin="round"></polygon><polygon points="-1.5814370976811014e-16, -0.47503203567376384 -0.2193796855167176, -0.37395546671262364 -0.21026020397250061, -0.11189369283530938 -1.5184428956292356e-16, -0.2198873666592313" fill="#F08A24" stroke="#000000" stroke-width="0.02" stroke-linejoin="round"></polygon><polygon points="0.4396810035929413, 0.005941230438490958 0.21026020397250045, -0.11189369283530946 0.2018686458137822, 0.12925012723885923 0.4213669357598817, 0.25270667991681617" fill="#1F9E57" stroke="#000000" stroke-width="0.02" stroke-linejoin="round"></polygon><polygon points="-0.21026020397250061, -0.11189369283530938 -0.43968100359294143, 0.00594123043849102 -0.42136693575988177, 0.2527066799168162 -0.20186864581378233, 0.1292501272388593" fill="#D42A2A" stroke="#000000" stroke-width="0.02" stroke-linejoin="round"></polygon><polygon points="1.9847551445258428e-17, 0.2527066799168161 0.22030325807933485, 0.38743726512758814 0.4213669357598817, 0.2527066799168161 0.20186864581378225, 0.12925012723885917" fill="#FDFDFD" stroke="#000000" stroke-width="0.02" stroke-linejoin="round"></polygon><polygon points="-0.4213669357598817, 0.2527066799168161 -0.22030325807933482, 0.3874372651275882 1.9847551445258428e-17, 0.2527066799168161 -0.20186864581378225, 0.12925012723885917" fill="#1E5AC8" stroke="#000000" stroke-width="0.02" stroke-linejoin="round"></polygon><polygon points="0.22932609999257847, -0.6597803799628815 -1.2374132130807752e-16, -0.7522628625903695 -1.1860778232608262e-16, -0.47503203567376384 0.21937968551671744, -0.37395546671262364" fill="#FDFDFD" stroke="#000000" stroke-width="0.02" stroke-linejoin="round"></polygon><polygon points="-1.6498842841077e-16, -0.7522628625903693 -0.22932609999257864, -0.6597803799628813 -0.2193796855167176, -0.37395546671262364 -1.5814370976811014e-16, -0.47503203567376384" fill="#F08A24" stroke="#000000" stroke-width="0.02" stroke-linejoin="round"></polygon><polygon points="0.4596593944331495, -0.2632494616828019 0.21937968551671744, -0.37395546671262364 0.21026020397250045, -0.11189369283530946 0.4396810035929413, 0.005941230438490958" fill="#1F9E57" stroke="#000000" stroke-width="0.02" stroke-linejoin="round"></polygon><polygon points="-0.2193796855167176, -0.37395546671262364 -0.4596593944331496, -0.2632494616828019 -0.43968100359294143, 0.00594123043849102 -0.21026020397250061, -0.11189369283530938" fill="#F08A24" stroke="#000000" stroke-width="0.02" stroke-linejoin="round"></polygon><polygon points="0.6910065332838701, 0.13502684323765066 0.4396810035929413, 0.005941230438490958 0.4213669357598817, 0.25270667991681617 0.6609097742380045, 0.38743726512758814" fill="#9B1FC1" stroke="#000000" stroke-width="0.02" stroke-linejoin="round"></polygon><polygon points="-0.43968100359294143, 0.00594123043849102 -0.6910065332838702, 0.13502684323765085 -0.6609097742380046, 0.38743726512758836 -0.42136693575988177, 0.2527066799168162" fill="#1E5AC8" stroke="#000000" stroke-width="0.02" stroke-linejoin="round"></polygon><polygon points="0.22030325807933485, 0.38743726512758814 0.4616871125887547, 0.5350600840637219 0.6609097742380046, 0.38743726512758814 0.4213669357598817, 0.2527066799168161" fill="#1F9E57" stroke="#000000" stroke-width="0.02" stroke-linejoin="round"></polygon><polygon points="-0.22030325807933482, 0.3874372651275882 6.524023083723817e-17, 0.5350600840637219 0.22030325807933485, 0.38743726512758814 1.9847551445258428e-17, 0.2527066799168161" fill="#FDFDFD" stroke="#000000" stroke-width="0.02" stroke-linejoin="round"></polygon><polygon points="-0.6609097742380046, 0.3874372651275882 -0.46168711258875456, 0.5350600840637219 -0.22030325807933482, 0.3874372651275882 -0.4213669357598817, 0.2527066799168161" fill="#D42A2A" stroke="#000000" stroke-width="0.02" stroke-linejoin="round"></polygon><polygon points="-4.12471071026925e-17, -0.7522628625903695 0.22932609999257852, -0.6597803799628815 -4.5363718638136074e-17, -0.5580678086927423 -0.22932609999257864, -0.6597803799628813" fill="#1F9E57" stroke="#000000" stroke-width="0.02" stroke-linejoin="round"></polygon><polygon points="0.4815397801070152, -0.5580678086927423 0.22932609999257847, -0.6597803799628815 0.21937968551671744, -0.37395546671262364 0.4596593944331495, -0.2632494616828019" fill="#D42A2A" stroke="#000000" stroke-width="0.02" stroke-linejoin="round"></polygon><polygon points="-0.22932609999257864, -0.6597803799628813 -0.48153978010701537, -0.5580678086927423 -0.4596593944331496, -0.2632494616828019 -0.2193796855167176, -0.37395546671262364" fill="#F08A24" stroke="#000000" stroke-width="0.02" stroke-linejoin="round"></polygon><polygon points="0.7239751890194036, -0.14146911736290724 0.4596593944331495, -0.2632494616828019 0.4396810035929413, 0.005941230438490958 0.6910065332838701, 0.13502684323765066" fill="#FDFDFD" stroke="#000000" stroke-width="0.02" stroke-linejoin="round"></polygon><polygon points="-0.4596593944331496, -0.2632494616828019 -0.7239751890194037, -0.14146911736290713 -0.6910065332838702, 0.13502684323765085 -0.43968100359294143, 0.00594123043849102" fill="#1E5AC8" stroke="#000000" stroke-width="0.02" stroke-linejoin="round"></polygon><polygon points="0.48376560427729665, 0.2770552205589154 0.6910065332838701, 0.13502684323765063 0.6609097742380045, 0.38743726512758814 0.46168711258875456, 0.5350600840637217" fill="#D42A2A" stroke="#000000" stroke-width="0.02" stroke-linejoin="round"></polygon><polygon points="-0.6910065332838702, 0.13502684323765074 -0.48376560427729653, 0.2770552205589155 -0.46168711258875456, 0.5350600840637221 -0.6609097742380046, 0.38743726512758836" fill="#9B1FC1" stroke="#000000" stroke-width="0.02" stroke-linejoin="round"></polygon><polygon points="6.524023083723817e-17, 0.5350600840637219 0.24244312528376352, 0.6975185873927411 0.4616871125887547, 0.5350600840637219 0.22030325807933485, 0.38743726512758814" fill="#1E5AC8" stroke="#000000" stroke-width="0.02" stroke-linejoin="round"></polygon><polygon points="-0.46168711258875456, 0.5350600840637219 -0.2424431252837633, 0.6975185873927411 6.524023083723817e-17, 0.5350600840637219 -0.22030325807933482, 0.3874372651275882" fill="#9B1FC1" stroke="#000000" stroke-width="0.02" stroke-linejoin="round"></polygon><polygon points="0.22932609999257852, -0.6597803799628815 0.4815397801070152, -0.5580678086927423 0.2534158000203593, -0.4456707783443247 -4.5363718638136074e-17, -0.5580678086927423" fill="#9B1FC1" stroke="#000000" stroke-width="0.02" stroke-linejoin="round"></polygon><polygon points="-0.22932609999257864, -0.6597803799628813 -4.5363718638136074e-17, -0.5580678086927423 -0.2534158000203593, -0.4456707783443247 -0.4815397801070152, -0.5580678086927422" fill="#1F9E57" stroke="#000000" stroke-width="0.02" stroke-linejoin="round"></polygon><polygon points="0.7602474000610777, -0.4456707783443246 0.4815397801070152, -0.5580678086927423 0.4596593944331495, -0.2632494616828019 0.7239751890194036, -0.14146911736290724" fill="#FDFDFD" stroke="#000000" stroke-width="0.02" stroke-linejoin="round"></polygon><polygon points="-0.48153978010701537, -0.5580678086927423 -0.7602474000610778, -0.44567077834432456 -0.7239751890194037, -0.14146911736290713 -0.4596593944331496, -0.2632494616828019" fill="#1E5AC8" stroke="#000000" stroke-width="0.02" stroke-linejoin="round"></polygon><polygon points="0.5080617949465493, -0.0068652322390651485 0.7239751890194036, -0.1414691173629073 0.6910065332838701, 0.13502684323765063 0.48376560427729665, 0.2770552205589154" fill="#D42A2A" stroke="#000000" stroke-width="0.02" stroke-linejoin="round"></polygon><polygon points="-0.7239751890194037, -0.14146911736290727 -0.5080617949465492, -0.0068652322390650765 -0.48376560427729653, 0.2770552205589155 -0.6910065332838702, 0.13502684323765074" fill="#9B1FC1" stroke="#000000" stroke-width="0.02" stroke-linejoin="round"></polygon><polygon points="0.25464898815265463, 0.4340756574075162 0.48376560427729665, 0.2770552205589154 0.46168711258875456, 0.5350600840637217 0.24244312528376344, 0.6975185873927411" fill="#F08A24" stroke="#000000" stroke-width="0.02" stroke-linejoin="round"></polygon><polygon points="-0.48376560427729653, 0.2770552205589155 -0.25464898815265447, 0.4340756574075163 -0.2424431252837633, 0.6975185873927412 -0.46168711258875456, 0.5350600840637221" fill="#F08A24" stroke="#000000" stroke-width="0.02" stroke-linejoin="round"></polygon><polygon points="-0.2424431252837633, 0.6975185873927411 1.4428715380377585e-16, 0.8771675153299014 0.24244312528376352, 0.6975185873927411 6.524023083723817e-17, 0.5350600840637219" fill="#D42A2A" stroke="#000000" stroke-width="0.02" stroke-linejoin="round"></polygon><polygon points="0.4815397801070152, -0.5580678086927423 0.7602474000610778, -0.4456707783443247 0.5349274923710015, -0.32081243002497156 0.2534158000203593, -0.4456707783443247" fill="#1F9E57" stroke="#000000" stroke-width="0.02" stroke-linejoin="round"></polygon><polygon points="-4.5363718638136074e-17, -0.5580678086927423 0.2534158000203593, -0.4456707783443247 0, -0.32081243002497156 -0.2534158000203593, -0.4456707783443247" fill="#9B1FC1" stroke="#000000" stroke-width="0.02" stroke-linejoin="round"></polygon><polygon points="-0.4815397801070152, -0.5580678086927422 -0.2534158000203593, -0.4456707783443247 -0.5349274923710015, -0.3208124300249715 -0.7602474000610778, -0.4456707783443247" fill="#F08A24" stroke="#000000" stroke-width="0.02" stroke-linejoin="round"></polygon><polygon points="0.5349274923710015, -0.3208124300249716 0.7602474000610777, -0.4456707783443246 0.7239751890194036, -0.1414691173629073 0.5080617949465493, -0.0068652322390651485" fill="#D42A2A" stroke="#000000" stroke-width="0.02" stroke-linejoin="round"></polygon><polygon points="-0.7602474000610778, -0.4456707783443247 -0.5349274923710013, -0.3208124300249715 -0.5080617949465492, -0.0068652322390650765 -0.7239751890194037, -0.14146911736290727" fill="#9B1FC1" stroke="#000000" stroke-width="0.02" stroke-linejoin="round"></polygon><polygon points="0.2681490211034131, 0.1427002525183434 0.5080617949465493, -0.0068652322390651485 0.48376560427729665, 0.2770552205589154 0.25464898815265463, 0.4340756574075162" fill="#D42A2A" stroke="#000000" stroke-width="0.02" stroke-linejoin="round"></polygon><polygon points="-0.5080617949465492, -0.0068652322390650765 -0.26814902110341293, 0.14270025251834348 -0.25464898815265447, 0.4340756574075163 -0.48376560427729653, 0.2770552205589155" fill="#1E5AC8" stroke="#000000" stroke-width="0.02" stroke-linejoin="round"></polygon><polygon points="5.065202740643146e-17, 0.6085941887960543 0.25464898815265463, 0.4340756574075162 0.24244312528376344, 0.6975185873927411 4.809571793459194e-17, 0.8771675153299014" fill="#1E5AC8" stroke="#000000" stroke-width="0.02" stroke-linejoin="round"></polygon><polygon points="-0.25464898815265447, 0.4340756574075163 1.519560822192944e-16, 0.6085941887960544 1.4428715380377585e-16, 0.8771675153299014 -0.2424431252837633, 0.6975185873927412" fill="#FDFDFD" stroke="#000000" stroke-width="0.02" stroke-linejoin="round"></polygon><polygon points="0.2534158000203593, -0.4456707783443247 0.5349274923710015, -0.32081243002497156 0.28316057534207417, -0.18129878587362544 0, -0.32081243002497156" fill="#1F9E57" stroke="#000000" stroke-width="0.02" stroke-linejoin="round"></polygon><polygon points="-0.2534158000203593, -0.4456707783443247 0, -0.32081243002497156 -0.28316057534207395, -0.1812987858736254 -0.5349274923710015, -0.3208124300249715" fill="#9B1FC1" stroke="#000000" stroke-width="0.02" stroke-linejoin="round"></polygon><polygon points="0.2831605753420741, -0.18129878587362547 0.5349274923710015, -0.3208124300249716 0.5080617949465493, -0.0068652322390651485 0.2681490211034131, 0.1427002525183434" fill="#D42A2A" stroke="#000000" stroke-width="0.02" stroke-linejoin="round"></polygon><polygon points="-0.5349274923710013, -0.3208124300249715 -0.28316057534207395, -0.1812987858736254 -0.26814902110341293, 0.14270025251834348 -0.5080617949465492, -0.0068652322390650765" fill="#1F9E57" stroke="#000000" stroke-width="0.02" stroke-linejoin="round"></polygon><polygon points="5.34953286656659e-17, 0.3098686682975683 0.2681490211034131, 0.1427002525183434 0.25464898815265463, 0.4340756574075162 5.065202740643146e-17, 0.6085941887960543" fill="#1E5AC8" stroke="#000000" stroke-width="0.02" stroke-linejoin="round"></polygon><polygon points="-0.26814902110341293, 0.14270025251834348 1.604859859969977e-16, 0.3098686682975683 1.519560822192944e-16, 0.6085941887960544 -0.25464898815265447, 0.4340756574075163" fill="#FDFDFD" stroke="#000000" stroke-width="0.02" stroke-linejoin="round"></polygon><polygon points="0, -0.32081243002497156 0.28316057534207417, -0.18129878587362544 1.1335365202355352e-16, -0.024388719165275553 -0.28316057534207395, -0.1812987858736254" fill="#F08A24" stroke="#000000" stroke-width="0.02" stroke-linejoin="round"></polygon><polygon points="5.667682601177675e-17, -0.024388719165275578 0.2831605753420741, -0.18129878587362547 0.2681490211034131, 0.1427002525183434 5.34953286656659e-17, 0.3098686682975683" fill="#1E5AC8" stroke="#000000" stroke-width="0.02" stroke-linejoin="round"></polygon><polygon points="-0.28316057534207395, -0.1812987858736254 1.7003047803533027e-16, -0.02438871916527555 1.604859859969977e-16, 0.3098686682975683 -0.26814902110341293, 0.14270025251834348" fill="#FDFDFD" stroke="#000000" stroke-width="0.02" stroke-linejoin="round"></polygon><line x1="-0.6343074398852242" y1="-0.22653395260701648" x2="-0.14177207379398057" y2="0.06395227095362842" stroke="#808080" marker-end="url(#arrowhead)" stroke-width="0.03"></line></svg>